<?xml version="1.0" encoding="UTF-8" standalone="no"?>
<!-- Created with Inkscape (http://www.inkscape.org/) -->

<svg
   xmlns:dc="http://purl.org/dc/elements/1.1/"
   xmlns:cc="http://creativecommons.org/ns#"
   xmlns:rdf="http://www.w3.org/1999/02/22-rdf-syntax-ns#"
   xmlns:svg="http://www.w3.org/2000/svg"
   xmlns="http://www.w3.org/2000/svg"
   xmlns:sodipodi="http://sodipodi.sourceforge.net/DTD/sodipodi-0.dtd"
   xmlns:inkscape="http://www.inkscape.org/namespaces/inkscape"
   width="269.16327"
   height="67.571007"
   id="svg2983"
   version="1.1"
   inkscape:version="0.48.3.1 r9886"
   sodipodi:docname="BB_Logo_Large.svg">
  <defs
     id="defs2985" />
  <sodipodi:namedview
     id="base"
     pagecolor="#ffffff"
     bordercolor="#666666"
     borderopacity="1.0"
     inkscape:pageopacity="0.0"
     inkscape:pageshadow="2"
     inkscape:zoom="1.979899"
     inkscape:cx="149.3093"
     inkscape:cy="-60.838296"
     inkscape:document-units="px"
     inkscape:current-layer="layer1"
     showgrid="false"
     showguides="false"
     inkscape:window-width="1525"
     inkscape:window-height="867"
     inkscape:window-x="137"
     inkscape:window-y="89"
     inkscape:window-maximized="0"
     fit-margin-top="0"
     fit-margin-left="0"
     fit-margin-right="0"
     fit-margin-bottom="0">
    <sodipodi:guide
       position="-105.02331,2.2023285"
       orientation="0,365.17014"
       id="guide3931" />
    <sodipodi:guide
       position="0.03255,60.791169"
       orientation="126.26906,0"
       id="guide3941" />
    <sodipodi:guide
       position="308.64634,67.629949"
       orientation="0,-336.88588"
       id="guide4019" />
    <sodipodi:guide
       position="-23.4535,16.344459"
       orientation="0,336.88587"
       id="guide4023" />
  </sodipodi:namedview>
  <metadata
     id="metadata2988">
    <rdf:RDF>
      <cc:Work
         rdf:about="">
        <dc:format>image/svg+xml</dc:format>
        <dc:type
           rdf:resource="http://purl.org/dc/dcmitype/StillImage" />
        <dc:title></dc:title>
      </cc:Work>
    </rdf:RDF>
  </metadata>
  <g
     inkscape:label="Layer 1"
     inkscape:groupmode="layer"
     id="layer1"
     transform="translate(-230.28223,-105.63541)">
    <flowRoot
       xml:space="preserve"
       id="flowRoot3009"
       style="font-size:56px;font-style:normal;font-variant:normal;font-weight:normal;font-stretch:normal;line-height:125%;letter-spacing:0px;word-spacing:0px;fill:#000000;fill-opacity:1;stroke:none;font-family:Arial;-inkscape-font-specification:Arial"><flowRegion
         id="flowRegion3011"><rect
           id="rect3013"
           width="417.14285"
           height="235"
           x="215.71428"
           y="62.362183"
           style="font-size:56px" /></flowRegion><flowPara
         id="flowPara3015"></flowPara></flowRoot>    <text
       xml:space="preserve"
       style="font-size:11px;font-style:normal;font-variant:normal;font-weight:normal;font-stretch:normal;line-height:125%;letter-spacing:0px;word-spacing:0px;fill:#000000;fill-opacity:1;stroke:none;font-family:Arial;-inkscape-font-specification:Arial"
       x="300"
       y="81.647896"
       id="text3017"
       sodipodi:linespacing="125%"><tspan
         sodipodi:role="line"
         id="tspan3019"
         x="300"
         y="81.647896"></tspan></text>
    <g
       id="g4054">
      <path
         inkscape:connector-curvature="0"
         id="path2987"
         d="m 234.22854,157.05618 c -2.07233,-0.24091 -3.69305,-1.86396 -3.91376,-3.91935 -0.0434,-0.405 -0.0434,-43.13258 0,-43.53758 0.22214,-2.06875 1.84011,-3.67936 3.93768,-3.91972 0.34524,-0.0395 43.13869,-0.0395 43.48392,0 2.09756,0.24036 3.71556,1.85097 3.93769,3.91972 0.0434,0.405 0.0434,43.13258 0,43.53758 -0.22213,2.06874 -1.84013,3.67936 -3.93769,3.91971 -0.29783,0.0341 -43.21422,0.0337 -43.50784,-3.6e-4 z m 22.34619,-2.6324 c -2e-4,-0.46492 -0.0421,-1.27802 -0.0977,-1.90114 -0.40142,-4.50239 -2.10035,-8.81259 -4.88437,-12.39158 -0.27751,-0.35677 -0.74846,-0.92511 -0.97136,-1.17226 l -0.1247,-0.13827 -7.96371,7.96406 c -4.38003,4.38026 -7.96369,7.97342 -7.96369,7.98483 0,0.0113 4.95129,0.0207 11.00287,0.0207 l 11.00285,0 -2.1e-4,-0.36641 z m -7.9616,-17.47485 c -0.2421,-0.22541 -0.78808,-0.68094 -1.21342,-1.01235 -3.56923,-2.78117 -7.90033,-4.48902 -12.38812,-4.88496 -0.67418,-0.0595 -1.45348,-0.0981 -1.98375,-0.0983 l -0.44946,-2.1e-4 0.007,11.04047 c 0.006,9.12809 0.0137,11.05923 0.0442,11.1486 l 0.037,0.10809 8.06302,-8.06695 8.06302,-8.06708 -0.17969,-0.16732 z m 8.67768,7.84468 c 0.28572,-0.45536 0.70026,-1.292 0.89748,-1.81128 0.28818,-0.75876 0.49852,-1.60696 0.61718,-2.48878 0.0399,-0.29623 0.0501,-0.55889 0.0501,-1.27204 0,-0.98273 -0.0238,-1.25193 -0.18392,-2.07397 -0.088,-0.45177 -0.26699,-1.10442 -0.40754,-1.48552 l -0.0838,-0.22729 0.13029,-0.059 c 0.79611,-0.36046 1.54983,-0.59442 2.35236,-0.73017 1.08326,-0.18326 2.25627,-0.1693 3.35963,0.04 2.49217,0.47267 4.78095,1.99011 6.18424,4.1001 0.23011,0.34601 0.30764,0.44863 0.2457,0.32526 -0.69039,-1.37515 -1.84729,-2.70702 -3.13921,-3.61399 -2.47409,-1.73689 -5.56488,-2.29166 -8.49779,-1.52527 -0.23492,0.0613 -0.58163,0.16643 -0.77049,0.23345 -0.18884,0.067 -0.34729,0.12183 -0.3521,0.12183 -0.005,0 -0.0735,-0.1151 -0.15272,-0.25578 -0.49876,-0.88624 -1.02394,-1.57554 -1.76562,-2.31742 -0.78759,-0.78781 -1.57312,-1.37346 -2.50637,-1.86858 l -0.30711,-0.16293 0.12072,-0.3316 c 0.38003,-1.04412 0.61925,-2.41378 0.61724,-3.53409 -7.4e-4,-0.46537 -0.0853,-1.33205 -0.17852,-1.83036 -0.3719,-1.98943 -1.33423,-3.83861 -2.74671,-5.27797 -0.59462,-0.60595 -1.48314,-1.28745 -2.17468,-1.66798 -0.55193,-0.30374 -0.55965,-0.29672 -0.0481,0.0437 0.92183,0.6134 1.80933,1.47809 2.47221,2.40862 1.81804,2.55209 2.28595,5.83231 1.24252,8.7109 -0.13265,0.36598 -0.37435,0.93166 -0.41726,0.97662 -0.012,0.0126 -0.16327,-0.0209 -0.33626,-0.0743 -0.67479,-0.20839 -1.21499,-0.32682 -1.93175,-0.42348 -0.53479,-0.0721 -2.00796,-0.0722 -2.54336,0 -0.88159,0.11869 -1.72955,0.32908 -2.48809,0.61736 -0.69003,0.2622 -1.78242,0.83483 -2.18287,1.14425 l -0.0902,0.0698 0.23119,0.0941 c 1.75207,0.71249 3.59465,1.7152 5.12358,2.7882 3.25646,2.28537 5.90193,5.22094 7.86814,8.73089 0.47216,0.84289 1.09792,2.17027 1.43872,3.05186 l 0.0253,0.0653 0.0511,-0.0653 c 0.0282,-0.0359 0.15263,-0.2271 0.27667,-0.4248 z"
         style="fill:#595959;fill-opacity:1" />
      <text
         sodipodi:linespacing="125%"
         id="text3021"
         y="145.72134"
         x="285.17987"
         style="font-size:11px;font-style:normal;font-variant:normal;font-weight:normal;font-stretch:normal;line-height:125%;letter-spacing:0px;word-spacing:0px;fill:#000000;fill-opacity:1;stroke:none;font-family:Arial;-inkscape-font-specification:Arial"
         xml:space="preserve"><tspan
           style="font-size:56px;font-weight:bold;-inkscape-font-specification:Arial Bold"
           y="145.72134"
           x="285.17987"
           id="tspan3023"
           sodipodi:role="line">BugBox</tspan></text>
      <text
         sodipodi:linespacing="125%"
         id="text3025"
         y="170.57927"
         x="230.71353"
         style="font-size:10.56295681px;font-style:normal;font-variant:normal;font-weight:normal;font-stretch:normal;line-height:125%;letter-spacing:0px;word-spacing:0px;fill:#000000;fill-opacity:1;stroke:none;font-family:Arial;-inkscape-font-specification:Arial"
         xml:space="preserve"><tspan
           style="font-size:12.48349476px"
           y="170.57927"
           x="230.71353"
           id="tspan3027"
           sodipodi:role="line">A Vulnerability Corpus for PHP Web Applications </tspan></text>
    </g>
  </g>
</svg>
