<?xml version="1.0" encoding="UTF-8" standalone="no"?>
<!-- Created with Inkscape (http://www.inkscape.org/) -->

<svg
   xmlns:dc="http://purl.org/dc/elements/1.1/"
   xmlns:cc="http://creativecommons.org/ns#"
   xmlns:rdf="http://www.w3.org/1999/02/22-rdf-syntax-ns#"
   xmlns:svg="http://www.w3.org/2000/svg"
   xmlns="http://www.w3.org/2000/svg"
   xmlns:sodipodi="http://sodipodi.sourceforge.net/DTD/sodipodi-0.dtd"
   xmlns:inkscape="http://www.inkscape.org/namespaces/inkscape"
   id="svg2"
   version="1.1"
   inkscape:version="0.48.3.1 r9886"
   width="2200"
   height="2200"
   sodipodi:docname="BB_Logo.png">
  <metadata
     id="metadata8">
    <rdf:RDF>
      <cc:Work
         rdf:about="">
        <dc:format>image/svg+xml</dc:format>
        <dc:type
           rdf:resource="http://purl.org/dc/dcmitype/StillImage" />
        <dc:title></dc:title>
      </cc:Work>
    </rdf:RDF>
  </metadata>
  <defs
     id="defs6" />
  <sodipodi:namedview
     pagecolor="#ffffff"
     bordercolor="#666666"
     borderopacity="1"
     objecttolerance="10"
     gridtolerance="10"
     guidetolerance="10"
     inkscape:pageopacity="0"
     inkscape:pageshadow="2"
     inkscape:window-width="1505"
     inkscape:window-height="874"
     id="namedview4"
     showgrid="true"
     inkscape:snap-global="false"
     inkscape:zoom="0.30341309"
     inkscape:cx="1877.7926"
     inkscape:cy="1132.6394"
     inkscape:window-x="0"
     inkscape:window-y="0"
     inkscape:window-maximized="0"
     inkscape:current-layer="svg2">
    <inkscape:grid
       type="xygrid"
       id="grid2989" />
  </sodipodi:namedview>
  <path
     style="fill:#595959;fill-opacity:1"
     d="m 309.71156,2036.8497 c -75.60028,-8.7886 -134.72643,-67.9994 -142.77743,-142.9817 -1.58632,-14.7747 -1.58632,-1573.51786 0,-1588.29258 8.10343,-75.4701 67.12944,-134.22695 143.65042,-142.99528 12.59471,-1.4432 1573.74055,-1.4432 1586.33535,0 76.521,8.76833 135.547,67.52518 143.6503,142.99528 1.5865,14.77472 1.5865,1573.51788 0,1588.29258 -8.1033,75.47 -67.1293,134.2269 -143.6503,142.9951 -10.8658,1.2451 -1576.49664,1.2319 -1587.20834,-0.013 z m 815.21054,-96.0326 c -0.012,-16.9607 -1.5348,-46.6231 -3.5616,-69.3556 -14.6442,-164.2513 -76.6234,-321.4916 -178.18654,-452.0567 -10.12387,-13.0149 -27.30459,-33.7486 -35.43639,-42.7648 l -4.54929,-5.044 -290.5233,290.5366 c -159.7878,159.7952 -290.52329,290.8775 -290.52329,291.294 0,0.4166 180.62765,0.7573 401.39478,0.7573 l 401.39493,0 -0.01,-13.3668 z M 834.47477,1303.3176 c -8.8311,-8.2232 -28.74935,-24.8413 -44.26567,-36.9315 -130.20929,-101.4591 -288.21188,-163.7633 -451.93093,-178.2075 -24.59471,-2.1699 -53.02435,-3.5779 -72.36937,-3.584 l -16.39606,-0.01 0.26373,402.7674 c 0.21794,333.0011 0.4972,403.4506 1.61182,406.711 l 1.34821,3.9432 294.14683,-294.2897 294.14688,-294.2948 -6.55544,-6.104 z m 316.57073,286.1814 c 10.4229,-16.6113 25.5461,-47.1327 32.7413,-66.0771 10.513,-27.6799 18.1864,-58.6233 22.5151,-90.7929 1.4543,-10.8071 1.8325,-20.3886 1.8325,-46.4053 0,-35.8505 -0.8708,-45.6713 -6.7092,-75.6607 -3.2084,-16.4807 -9.7406,-40.2901 -14.8677,-54.1926 l -3.0579,-8.2919 4.7538,-2.1523 c 29.0425,-13.15 56.539,-21.6851 85.8163,-26.6379 39.518,-6.6853 82.3104,-6.1761 122.5623,1.4583 90.9169,17.2439 174.4133,72.6014 225.6068,149.5758 8.395,12.6226 11.2231,16.3666 8.9636,11.866 -25.1863,-50.1668 -67.391,-98.7545 -114.5218,-131.8419 -90.257,-63.3636 -203.0117,-83.602 -310.0074,-55.6436 -8.5696,2.2394 -21.218,6.0717 -28.1076,8.5165 -6.8895,2.4447 -12.67,4.4449 -12.8455,4.4449 -0.1755,0 -2.6824,-4.1992 -5.5709,-9.3315 -18.1957,-32.3301 -37.3549,-57.4769 -64.4118,-84.5413 -28.7321,-28.7401 -57.3894,-50.1052 -91.4348,-68.1676 l -11.20312,-5.9439 4.40304,-12.0971 c 13.86438,-38.09058 22.59118,-88.05683 22.51778,-128.92742 -0.03,-16.97697 -3.1141,-48.5942 -6.5125,-66.77287 -13.56767,-72.57663 -48.67427,-140.03644 -100.20231,-192.5456 -21.69234,-22.10537 -54.10668,-46.96712 -79.33499,-60.84981 -20.13526,-11.08009 -20.41592,-10.82465 -1.75236,1.59486 33.62833,22.37768 66.00512,53.92191 90.18805,87.86888 66.32414,93.10299 83.39331,212.76829 45.32845,317.78147 -4.83976,13.35187 -13.65685,33.98839 -15.22257,35.62859 -0.43633,0.4572 -5.95628,-0.7634 -12.26655,-2.7123 -24.61711,-7.6028 -44.32406,-11.923 -70.47222,-15.4494 -19.50931,-2.631 -73.25214,-2.6328 -92.78476,0 -32.16059,4.33 -63.09532,12.0055 -90.76766,22.5214 -25.1728,9.5661 -65.02414,30.4563 -79.63269,41.7439 l -3.29235,2.5437 8.43322,3.4294 c 63.91719,25.9921 131.13649,62.5719 186.91332,101.7159 118.79856,83.3724 215.30812,190.4647 287.03692,318.5115 17.2248,30.749 40.0534,79.1732 52.4863,111.3344 l 0.9213,2.3831 1.8649,-2.3831 c 1.0258,-1.3105 5.568,-8.2844 10.0937,-15.4974 z"
     id="path2987"
     inkscape:connector-curvature="0" />
</svg>
